<?xml version="1.0" encoding="UTF-8" standalone="no"?>
<!-- Created with Inkscape (http://www.inkscape.org/) -->

<svg
   xmlns:dc="http://purl.org/dc/elements/1.1/"
   xmlns:cc="http://creativecommons.org/ns#"
   xmlns:rdf="http://www.w3.org/1999/02/22-rdf-syntax-ns#"
   xmlns:svg="http://www.w3.org/2000/svg"
   xmlns="http://www.w3.org/2000/svg"
   xmlns:sodipodi="http://sodipodi.sourceforge.net/DTD/sodipodi-0.dtd"
   xmlns:inkscape="http://www.inkscape.org/namespaces/inkscape"
   width="37.843624mm"
   height="57.743423mm"
   viewBox="0 0 37.843624 57.743423"
   version="1.1"
   id="svg4571"
   inkscape:version="0.92.4 5da689c313, 2019-01-14"
   sodipodi:docname="power.svg">
  <defs
     id="defs4565" />
  <sodipodi:namedview
     id="base"
     pagecolor="#ffffff"
     bordercolor="#666666"
     borderopacity="1.0"
     inkscape:pageopacity="0.0"
     inkscape:pageshadow="2"
     inkscape:zoom="0.98994949"
     inkscape:cx="-49.653159"
     inkscape:cy="78.244742"
     inkscape:document-units="mm"
     inkscape:current-layer="layer1"
     showgrid="false"
     fit-margin-top="0"
     fit-margin-left="0"
     fit-margin-right="0"
     fit-margin-bottom="0"
     inkscape:window-width="1366"
     inkscape:window-height="704"
     inkscape:window-x="0"
     inkscape:window-y="27"
     inkscape:window-maximized="1" />
  <metadata
     id="metadata4568">
    <rdf:RDF>
      <cc:Work
         rdf:about="">
        <dc:format>image/svg+xml</dc:format>
        <dc:type
           rdf:resource="http://purl.org/dc/dcmitype/StillImage" />
        <dc:title></dc:title>
      </cc:Work>
    </rdf:RDF>
  </metadata>
  <g
     inkscape:label="Layer 1"
     inkscape:groupmode="layer"
     id="layer1"
     transform="translate(-13.525642,-90.502028)">
    <path
       d="m 50.305329,115.31669 c -0.392417,-0.75775 -1.181576,-1.2741 -2.090372,-1.3665 l -13.552829,-1.39081 5.150903,-18.217687 c 0.322799,-1.14599 -0.30812,-2.339531 -1.491146,-2.817441 -1.187467,-0.474571 -2.57411,-0.09734 -3.274429,0.898017 l -20.28573,28.662351 c -0.49727,0.70261 -0.561642,1.59062 -0.17215,2.34663 0.392417,0.75774 1.181576,1.2741 2.090365,1.36649 l 13.552837,1.39082 -5.150901,18.21769 c -0.322796,1.146 0.308119,2.33954 1.491146,2.81745 1.183554,0.47319 2.568139,0.0995 3.274429,-0.89803 l 20.285731,-28.66235 c 0.497271,-0.70261 0.56164,-1.59062 0.172146,-2.34663 z"
       id="path2"
       inkscape:connector-curvature="0"
       style="fill:#ffdb0a;fill-opacity:1;stroke:#ffba00;stroke-width:1.6310761;stroke-miterlimit:4;stroke-dasharray:none;stroke-opacity:1" />
  </g>
</svg>
